<?xml version="1.0" standalone="no"?>
<!DOCTYPE svg PUBLIC "-//W3C//DTD SVG 20010904//EN"
 "http://www.w3.org/TR/2001/REC-SVG-20010904/DTD/svg10.dtd">
<svg version="1.0" xmlns="http://www.w3.org/2000/svg"
 width="769.000000pt" height="769.000000pt" viewBox="0 0 769.000000 769.000000"
 preserveAspectRatio="xMidYMid meet">
<metadata>
Created by potrace 1.14, written by Peter Selinger 2001-2017
</metadata>
<g transform="translate(0.000000,769.000000) scale(0.100000,-0.100000)"
fill="#000000" stroke="none">
<path d="M4200 4930 c-4 -8 -24 -55 -44 -105 -21 -49 -43 -103 -51 -120 -17
-37 -169 -399 -202 -480 -13 -33 -30 -73 -38 -90 -7 -16 -90 -214 -185 -440
-95 -225 -178 -423 -185 -440 -33 -74 -205 -488 -205 -494 0 -3 131 -6 291 -6
l292 0 129 305 c157 372 148 350 148 356 0 3 9 24 19 47 10 23 38 87 61 142
23 55 48 114 55 130 8 17 55 129 105 250 51 121 98 234 105 250 29 65 295 701
295 706 0 2 -131 4 -291 4 -249 0 -292 -2 -299 -15z"/>
<path d="M2650 4924 c-19 -9 -138 -57 -265 -109 -346 -140 -494 -200 -670
-272 -88 -36 -204 -83 -257 -104 -54 -21 -117 -47 -142 -59 -25 -11 -48 -20
-51 -20 -3 0 -25 -8 -48 -19 -23 -10 -89 -38 -147 -61 -58 -23 -118 -48 -135
-55 -16 -7 -97 -40 -180 -73 l-150 -61 -3 -228 -2 -229 237 -98 c131 -55 256
-107 278 -117 22 -10 247 -104 500 -209 648 -270 696 -290 730 -305 106 -46
348 -145 355 -145 7 0 6 527 -1 535 -4 3 -132 57 -285 120 -154 63 -288 119
-299 124 -25 11 -207 86 -385 158 -74 30 -153 62 -175 72 -22 10 -77 33 -123
51 -45 18 -84 36 -87 40 -2 4 190 83 428 175 238 92 488 190 557 217 69 27
179 70 245 95 66 25 122 47 125 50 10 9 6 543 -5 543 -5 -1 -26 -8 -45 -16z"/>
<path d="M4977 4933 c-5 -11 -2 -531 3 -536 3 -2 113 -46 245 -96 132 -51 254
-99 270 -106 36 -15 98 -39 105 -41 3 0 14 -4 25 -9 35 -15 445 -174 583 -227
72 -28 132 -53 132 -57 0 -3 -51 -26 -113 -50 -61 -24 -130 -52 -152 -62 -22
-10 -146 -61 -275 -114 -239 -97 -470 -193 -660 -271 -57 -24 -109 -44 -115
-44 -5 0 -19 -7 -30 -16 -19 -14 -20 -27 -20 -280 l0 -265 23 6 c13 3 43 14
66 25 67 30 162 70 546 230 201 83 385 160 410 172 25 11 61 26 81 33 19 7 56
22 80 33 25 12 70 30 99 42 29 12 72 29 94 39 23 10 191 80 374 157 l332 138
0 228 0 228 -27 11 c-16 6 -109 43 -208 84 -99 40 -373 152 -610 248 -236 96
-493 201 -570 232 -77 31 -246 100 -375 152 -129 52 -248 101 -264 109 -33 16
-43 17 -49 7z"/>
</g>
</svg>
